<mxfile host="app.diagrams.net" agent="Mozilla/5.0 (X11; Linux x86_64) AppleWebKit/537.36 (KHTML, like Gecko) Chrome/128.0.0.0 Safari/537.36" version="24.7.8">
  <diagram name="Page-1" id="aAF-gzCnWLFgiZgL9Swd">
    <mxGraphModel grid="1" page="1" gridSize="10" guides="1" tooltips="1" connect="1" arrows="1" fold="1" pageScale="1" pageWidth="850" pageHeight="1100" math="0" shadow="0">
      <root>
        <mxCell id="0" />
        <mxCell id="1" parent="0" />
        <mxCell id="4VpeW9GysY0Lxtsv3LtF-13" style="edgeStyle=orthogonalEdgeStyle;rounded=0;orthogonalLoop=1;jettySize=auto;html=1;exitX=0.5;exitY=1;exitDx=0;exitDy=0;entryX=0.5;entryY=0;entryDx=0;entryDy=0;" edge="1" parent="1" source="4VpeW9GysY0Lxtsv3LtF-1" target="4VpeW9GysY0Lxtsv3LtF-10">
          <mxGeometry relative="1" as="geometry" />
        </mxCell>
        <mxCell id="4VpeW9GysY0Lxtsv3LtF-1" value="&lt;font style=&quot;font-size: 20px;&quot;&gt;Start&lt;/font&gt;" style="ellipse;whiteSpace=wrap;html=1;" vertex="1" parent="1">
          <mxGeometry x="310" y="70" width="120" height="80" as="geometry" />
        </mxCell>
        <mxCell id="4VpeW9GysY0Lxtsv3LtF-5" style="edgeStyle=orthogonalEdgeStyle;rounded=0;orthogonalLoop=1;jettySize=auto;html=1;exitX=0.5;exitY=1;exitDx=0;exitDy=0;entryX=0.5;entryY=0;entryDx=0;entryDy=0;" edge="1" parent="1" source="4VpeW9GysY0Lxtsv3LtF-2" target="4VpeW9GysY0Lxtsv3LtF-4">
          <mxGeometry relative="1" as="geometry" />
        </mxCell>
        <mxCell id="4VpeW9GysY0Lxtsv3LtF-2" value="&lt;span style=&quot;font-size: 20px;&quot;&gt;r&lt;/span&gt;" style="shape=parallelogram;perimeter=parallelogramPerimeter;whiteSpace=wrap;html=1;fixedSize=1;" vertex="1" parent="1">
          <mxGeometry x="310" y="270" width="120" height="60" as="geometry" />
        </mxCell>
        <mxCell id="4VpeW9GysY0Lxtsv3LtF-7" style="edgeStyle=orthogonalEdgeStyle;rounded=0;orthogonalLoop=1;jettySize=auto;html=1;exitX=0.5;exitY=1;exitDx=0;exitDy=0;" edge="1" parent="1" source="4VpeW9GysY0Lxtsv3LtF-4" target="4VpeW9GysY0Lxtsv3LtF-6">
          <mxGeometry relative="1" as="geometry" />
        </mxCell>
        <mxCell id="4VpeW9GysY0Lxtsv3LtF-4" value="&lt;font style=&quot;font-size: 20px;&quot;&gt;a = 3.14 * (r * r)&lt;/font&gt;" style="rounded=0;whiteSpace=wrap;html=1;" vertex="1" parent="1">
          <mxGeometry x="285" y="360" width="170" height="60" as="geometry" />
        </mxCell>
        <mxCell id="4VpeW9GysY0Lxtsv3LtF-9" style="edgeStyle=orthogonalEdgeStyle;rounded=0;orthogonalLoop=1;jettySize=auto;html=1;exitX=0.5;exitY=1;exitDx=0;exitDy=0;entryX=0.5;entryY=0;entryDx=0;entryDy=0;" edge="1" parent="1" source="4VpeW9GysY0Lxtsv3LtF-6" target="4VpeW9GysY0Lxtsv3LtF-8">
          <mxGeometry relative="1" as="geometry" />
        </mxCell>
        <mxCell id="4VpeW9GysY0Lxtsv3LtF-6" value="&lt;span style=&quot;font-size: 20px;&quot;&gt;a&lt;/span&gt;" style="shape=parallelogram;perimeter=parallelogramPerimeter;whiteSpace=wrap;html=1;fixedSize=1;" vertex="1" parent="1">
          <mxGeometry x="310" y="450" width="120" height="60" as="geometry" />
        </mxCell>
        <mxCell id="4VpeW9GysY0Lxtsv3LtF-8" value="&lt;font style=&quot;font-size: 20px;&quot;&gt;End&lt;/font&gt;" style="ellipse;whiteSpace=wrap;html=1;" vertex="1" parent="1">
          <mxGeometry x="310" y="540" width="120" height="80" as="geometry" />
        </mxCell>
        <mxCell id="4VpeW9GysY0Lxtsv3LtF-12" style="edgeStyle=orthogonalEdgeStyle;rounded=0;orthogonalLoop=1;jettySize=auto;html=1;exitX=0.5;exitY=1;exitDx=0;exitDy=0;entryX=0.5;entryY=0;entryDx=0;entryDy=0;" edge="1" parent="1" source="4VpeW9GysY0Lxtsv3LtF-10" target="4VpeW9GysY0Lxtsv3LtF-2">
          <mxGeometry relative="1" as="geometry" />
        </mxCell>
        <mxCell id="4VpeW9GysY0Lxtsv3LtF-10" value="&lt;span style=&quot;font-size: 20px;&quot;&gt;a,r = 0&lt;/span&gt;" style="rounded=0;whiteSpace=wrap;html=1;" vertex="1" parent="1">
          <mxGeometry x="310" y="180" width="120" height="60" as="geometry" />
        </mxCell>
      </root>
    </mxGraphModel>
  </diagram>
</mxfile>
